<svg width="22" height="26" viewBox="0 0 22 26" fill="none" xmlns="http://www.w3.org/2000/svg">
<path d="M5.66841 25.5133C5.1558 25.1723 4.70147 24.7509 4.32291 24.2653C3.90649 23.7641 3.52067 23.2383 3.16753 22.6907C2.33885 21.4767 1.68898 20.1498 1.23785 18.7509C0.695909 17.1259 0.433472 15.5683 0.433472 14.0449C0.433472 12.3435 0.801534 10.8582 1.52141 9.61024C2.05504 8.63478 2.83962 7.81963 3.79397 7.24911C4.71885 6.67465 5.78154 6.36028 6.8701 6.33911C7.25116 6.33911 7.66147 6.39436 8.09697 6.49999C8.40978 6.58855 8.79085 6.7283 9.25641 6.90218C9.84872 7.13049 10.1745 7.27024 10.285 7.30436C10.632 7.43111 10.9237 7.48636 11.1528 7.48636C11.3267 7.48636 11.572 7.43111 11.8507 7.34661C12.0075 7.29136 12.3033 7.19386 12.7266 7.01268C13.1458 6.85993 13.4757 6.72911 13.7382 6.63161C14.1403 6.51299 14.5295 6.4033 14.8765 6.34805C15.2878 6.28321 15.7052 6.26603 16.1204 6.29686C16.84 6.34389 17.5487 6.49638 18.224 6.74943C19.3282 7.19386 20.2211 7.88774 20.8857 8.87411C20.6048 9.04725 20.3412 9.24696 20.0984 9.47049C19.57 9.93896 19.1198 10.4889 18.7651 11.0996C18.3014 11.934 18.061 12.8741 18.0672 13.8287C18.0842 15.0012 18.3848 16.0339 18.9772 16.9268C19.4126 17.5886 19.9786 18.1545 20.6403 18.59C20.9792 18.8183 21.2708 18.9751 21.5503 19.0807C21.4195 19.487 21.2798 19.8802 21.1148 20.2702C20.7408 21.1448 20.2874 21.9833 19.7604 22.7752C19.2908 23.4569 18.9227 23.9647 18.6432 24.3027C18.2077 24.8186 17.7885 25.2127 17.3652 25.4873C16.8996 25.7961 16.3495 25.961 15.7905 25.961C15.412 25.9755 15.0335 25.9297 14.6693 25.8253C14.3565 25.7197 14.0469 25.6051 13.7422 25.4743C13.4255 25.3288 13.0988 25.2058 12.7648 25.1062C11.939 24.8941 11.0733 24.8928 10.2468 25.1022C9.90803 25.1997 9.58222 25.3134 9.26047 25.4532C8.80791 25.6433 8.50728 25.7709 8.33341 25.8253C7.98647 25.9269 7.62653 25.9902 7.26253 26.0114C6.69947 26.0114 6.1746 25.8505 5.6546 25.5247L5.66841 25.5133ZM13.0947 5.51361C12.3585 5.88168 11.6557 6.03849 10.9578 5.9873C10.8481 5.28449 10.9578 4.56543 11.2495 3.77811C11.4978 3.1111 11.8647 2.49451 12.3325 1.95811C12.8265 1.39344 13.426 0.930607 14.0973 0.595551C14.8123 0.227488 15.494 0.028426 16.1456 -0.000823975C16.2301 0.735301 16.1456 1.45924 15.875 2.24168C15.6246 2.93334 15.2584 3.57737 14.792 4.14618C14.3159 4.71162 13.7316 5.17625 13.0735 5.5128L13.0947 5.51361Z" fill="black"/>
</svg>
