<svg width="48" height="48" viewBox="0 0 48 48" fill="none" xmlns="http://www.w3.org/2000/svg">
<circle cx="24" cy="24" r="24" fill="#FDFDFD"/>
<path d="M1.64599 31.2727H3.24401L6.02241 38.0568H6.12469L8.9031 31.2727H10.5011V40H9.24827V33.6847H9.1673L6.59344 39.9872H5.55366L2.9798 33.6804H2.89884V40H1.64599V31.2727ZM13.1787 42.4545C12.9883 42.4545 12.815 42.4389 12.6588 42.4077C12.5025 42.3793 12.386 42.348 12.3093 42.3139L12.6162 41.2699C12.8491 41.3324 13.0565 41.3594 13.2383 41.3509C13.4201 41.3423 13.5806 41.2741 13.7198 41.1463C13.8619 41.0185 13.9869 40.8097 14.0948 40.5199L14.2525 40.0852L11.8576 33.4545H13.2213L14.8789 38.5341H14.9471L16.6048 33.4545H17.9727L15.2752 40.8736C15.1502 41.2145 14.9912 41.5028 14.798 41.7386C14.6048 41.9773 14.3747 42.1563 14.1076 42.2756C13.8406 42.3949 13.5309 42.4545 13.1787 42.4545ZM25.223 40.1321C24.5895 40.1321 24.044 39.9886 23.5866 39.7017C23.1321 39.4119 22.7827 39.0128 22.5384 38.5043C22.294 37.9957 22.1719 37.4134 22.1719 36.7571C22.1719 36.0923 22.2969 35.5057 22.5469 34.9972C22.7969 34.4858 23.1491 34.0866 23.6037 33.7997C24.0582 33.5128 24.5938 33.3693 25.2102 33.3693C25.7074 33.3693 26.1506 33.4616 26.5398 33.6463C26.929 33.8281 27.2429 34.0838 27.4815 34.4134C27.723 34.7429 27.8665 35.1278 27.9119 35.5682H26.6719C26.6037 35.2614 26.4474 34.9972 26.2031 34.7756C25.9616 34.554 25.6378 34.4432 25.2315 34.4432C24.8764 34.4432 24.5653 34.5369 24.2983 34.7244C24.0341 34.9091 23.8281 35.1733 23.6804 35.517C23.5327 35.858 23.4588 36.2614 23.4588 36.7273C23.4588 37.2045 23.5313 37.6165 23.6761 37.9631C23.821 38.3097 24.0256 38.5781 24.2898 38.7685C24.5568 38.9588 24.8707 39.054 25.2315 39.054C25.473 39.054 25.6918 39.0099 25.8878 38.9219C26.0866 38.831 26.2528 38.7017 26.3864 38.5341C26.5227 38.3665 26.6179 38.1648 26.6719 37.929H27.9119C27.8665 38.3523 27.7287 38.7301 27.4986 39.0625C27.2685 39.3949 26.9602 39.6562 26.5739 39.8466C26.1903 40.0369 25.7401 40.1321 25.223 40.1321ZM31.2393 40.1449C30.8246 40.1449 30.4496 40.0682 30.1143 39.9148C29.7791 39.7585 29.5135 39.5327 29.3175 39.2372C29.1243 38.9418 29.0277 38.5795 29.0277 38.1506C29.0277 37.7812 29.0987 37.4773 29.2408 37.2386C29.3828 37 29.5746 36.8111 29.816 36.6719C30.0575 36.5327 30.3274 36.4276 30.6257 36.3565C30.924 36.2855 31.228 36.2315 31.5376 36.1946C31.9297 36.1491 32.2479 36.1122 32.4922 36.0838C32.7365 36.0526 32.914 36.0028 33.0248 35.9347C33.1356 35.8665 33.191 35.7557 33.191 35.6023V35.5724C33.191 35.2003 33.0859 34.9119 32.8757 34.7074C32.6683 34.5028 32.3587 34.4006 31.9467 34.4006C31.5177 34.4006 31.1797 34.4957 30.9325 34.6861C30.6882 34.8736 30.5192 35.0824 30.4254 35.3125L29.228 35.0398C29.37 34.642 29.5774 34.321 29.8501 34.0767C30.1257 33.8295 30.4425 33.6506 30.8004 33.5398C31.1584 33.4261 31.5348 33.3693 31.9297 33.3693C32.191 33.3693 32.468 33.4006 32.7606 33.4631C33.0561 33.5227 33.3317 33.6335 33.5873 33.7955C33.8459 33.9574 34.0575 34.1889 34.2223 34.4901C34.3871 34.7884 34.4694 35.1761 34.4694 35.6534V40H33.2251V39.1051H33.174C33.0916 39.2699 32.968 39.4318 32.8033 39.5909C32.6385 39.75 32.4268 39.8821 32.1683 39.9872C31.9098 40.0923 31.6001 40.1449 31.2393 40.1449ZM31.5163 39.1222C31.8686 39.1222 32.1697 39.0526 32.4197 38.9134C32.6726 38.7741 32.8643 38.5923 32.995 38.3679C33.1285 38.1406 33.1953 37.8977 33.1953 37.6392V36.7955C33.1498 36.8409 33.0618 36.8835 32.9311 36.9233C32.8033 36.9602 32.6569 36.9929 32.4922 37.0213C32.3274 37.0469 32.1669 37.071 32.0106 37.0938C31.8544 37.1136 31.7237 37.1307 31.6186 37.1449C31.3714 37.1761 31.1456 37.2287 30.941 37.3026C30.7393 37.3764 30.5774 37.483 30.4552 37.6222C30.3359 37.7585 30.2763 37.9403 30.2763 38.1676C30.2763 38.483 30.3927 38.7216 30.6257 38.8835C30.8587 39.0426 31.1555 39.1222 31.5163 39.1222ZM36.2265 40V33.4545H37.4581V34.4943H37.5262C37.6456 34.142 37.8558 33.8651 38.1569 33.6634C38.4609 33.4588 38.8047 33.3565 39.1882 33.3565C39.2677 33.3565 39.3615 33.3594 39.4694 33.3651C39.5802 33.3707 39.6669 33.3778 39.7294 33.3864V34.6051C39.6782 34.5909 39.5873 34.5753 39.4566 34.5582C39.326 34.5384 39.1953 34.5284 39.0646 34.5284C38.7635 34.5284 38.495 34.5923 38.2592 34.7202C38.0262 34.8452 37.8416 35.0199 37.7052 35.2443C37.5689 35.4659 37.5007 35.7187 37.5007 36.0028V40H36.2265ZM43.1079 40.1278C42.5795 40.1278 42.1079 39.9929 41.6931 39.723C41.2812 39.4503 40.9573 39.0625 40.7215 38.5597C40.4886 38.054 40.3721 37.4474 40.3721 36.7401C40.3721 36.0327 40.49 35.4276 40.7258 34.9247C40.9644 34.4219 41.2912 34.0369 41.7059 33.7699C42.1207 33.5028 42.5909 33.3693 43.1164 33.3693C43.5227 33.3693 43.8494 33.4375 44.0965 33.5739C44.3465 33.7074 44.5397 33.8636 44.6761 34.0426C44.8153 34.2216 44.9233 34.3793 45 34.5156H45.0767V31.2727H46.3508V40H45.1065V38.9815H45C44.9233 39.1207 44.8125 39.2798 44.6676 39.4588C44.5255 39.6378 44.3295 39.794 44.0795 39.9276C43.8295 40.0611 43.5056 40.1278 43.1079 40.1278ZM43.3892 39.0412C43.7556 39.0412 44.0653 38.9446 44.3181 38.7514C44.5738 38.5554 44.767 38.2841 44.8977 37.9375C45.0312 37.5909 45.098 37.1875 45.098 36.7273C45.098 36.2727 45.0326 35.875 44.9019 35.5341C44.7713 35.1932 44.5795 34.9276 44.3267 34.7372C44.0738 34.5469 43.7613 34.4517 43.3892 34.4517C43.0056 34.4517 42.686 34.5511 42.4304 34.75C42.1747 34.9489 41.9815 35.2202 41.8508 35.5639C41.723 35.9077 41.659 36.2955 41.659 36.7273C41.659 37.1648 41.7244 37.5582 41.8551 37.9077C41.9858 38.2571 42.1789 38.5341 42.4346 38.7386C42.6931 38.9403 43.0113 39.0412 43.3892 39.0412Z" fill="#9CA4AB"/>
<path d="M33.6389 16.3958H29.5906C28.1042 16.3949 26.8993 15.1909 26.8984 13.7045C26.8984 12.218 28.1042 11.0141 29.5906 11.0132H33.6389" stroke="#9CA4AB" stroke-width="1.5" stroke-linecap="round" stroke-linejoin="round"/>
<path d="M30.0486 13.6429H29.7369" stroke="#9CA4AB" stroke-width="1.5" stroke-linecap="round" stroke-linejoin="round"/>
<path fill-rule="evenodd" clip-rule="evenodd" d="M19.7477 5H28.3911C31.2892 5 33.6388 7.34951 33.6388 10.2477V17.4247C33.6388 20.3229 31.2892 22.6724 28.3911 22.6724H19.7477C16.8495 22.6724 14.5 20.3229 14.5 17.4247V10.2477C14.5 7.34951 16.8495 5 19.7477 5Z" stroke="#9CA4AB" stroke-width="1.5" stroke-linecap="round" stroke-linejoin="round"/>
<path d="M19.0356 9.53817H24.4345" stroke="#9CA4AB" stroke-width="1.5" stroke-linecap="round" stroke-linejoin="round"/>
</svg>
