<svg width="48" height="48" viewBox="0 0 48 48" fill="none" xmlns="http://www.w3.org/2000/svg">
<circle cx="24" cy="24" r="24" fill="#FDFDFD"/>
<path d="M5.89477 33.5653C5.84931 33.1619 5.66181 32.8494 5.33227 32.6278C5.00272 32.4034 4.58795 32.2912 4.08795 32.2912C3.72999 32.2912 3.42033 32.348 3.15897 32.4616C2.89761 32.5724 2.69448 32.7259 2.5496 32.9219C2.40755 33.1151 2.33653 33.3352 2.33653 33.5824C2.33653 33.7898 2.38482 33.9687 2.48141 34.1193C2.58085 34.2699 2.71011 34.3963 2.8692 34.4986C3.03113 34.598 3.20442 34.6818 3.38908 34.75C3.57374 34.8153 3.7513 34.8693 3.92175 34.9119L4.77403 35.1335C5.05244 35.2017 5.33795 35.294 5.63056 35.4105C5.92318 35.527 6.19448 35.6804 6.44448 35.8707C6.69448 36.0611 6.89619 36.2969 7.0496 36.5781C7.20585 36.8594 7.28397 37.196 7.28397 37.5881C7.28397 38.0824 7.15613 38.5213 6.90045 38.9048C6.64761 39.2884 6.27971 39.5909 5.79675 39.8125C5.31664 40.0341 4.73567 40.1449 4.05386 40.1449C3.40045 40.1449 2.83511 40.0412 2.35783 39.8338C1.88056 39.6264 1.50698 39.3324 1.2371 38.9517C0.967209 38.5682 0.818061 38.1136 0.789652 37.5881H2.11067C2.13624 37.9034 2.23852 38.1662 2.41749 38.3764C2.59931 38.5838 2.83085 38.7386 3.1121 38.8409C3.39619 38.9403 3.70727 38.9901 4.04533 38.9901C4.41749 38.9901 4.74846 38.9318 5.03823 38.8153C5.33085 38.696 5.56096 38.5312 5.72857 38.321C5.89619 38.108 5.97999 37.8594 5.97999 37.5753C5.97999 37.3168 5.90613 37.1051 5.7584 36.9403C5.61352 36.7756 5.41607 36.6392 5.16607 36.5312C4.91891 36.4233 4.63908 36.3281 4.32658 36.2457L3.29533 35.9645C2.59647 35.7741 2.04249 35.4943 1.6334 35.125C1.22715 34.7557 1.02403 34.267 1.02403 33.6591C1.02403 33.1562 1.16039 32.7173 1.43312 32.3423C1.70585 31.9673 2.07516 31.6761 2.54107 31.4688C3.00698 31.2585 3.53255 31.1534 4.11778 31.1534C4.70869 31.1534 5.22999 31.2571 5.6817 31.4645C6.13624 31.6719 6.4942 31.9574 6.75556 32.321C7.01693 32.6818 7.15329 33.0966 7.16465 33.5653H5.89477ZM11.8706 33.4545V34.4773H8.29532V33.4545H11.8706ZM9.25413 31.8864H10.5283V38.0781C10.5283 38.3253 10.5652 38.5114 10.6391 38.6364C10.7129 38.7585 10.8081 38.8423 10.9246 38.8878C11.0439 38.9304 11.1732 38.9517 11.3124 38.9517C11.4146 38.9517 11.5041 38.9446 11.5808 38.9304C11.6575 38.9162 11.7172 38.9048 11.7598 38.8963L11.9899 39.9489C11.9161 39.9773 11.8109 40.0057 11.6746 40.0341C11.5382 40.0653 11.3678 40.0824 11.1632 40.0852C10.828 40.0909 10.5155 40.0312 10.2257 39.9062C9.93594 39.7812 9.70157 39.5881 9.52259 39.3267C9.34362 39.0653 9.25413 38.7372 9.25413 38.3423V31.8864ZM15.2449 40.1449C14.8301 40.1449 14.4551 40.0682 14.1199 39.9148C13.7847 39.7585 13.519 39.5327 13.323 39.2372C13.1298 38.9418 13.0332 38.5795 13.0332 38.1506C13.0332 37.7812 13.1043 37.4773 13.2463 37.2386C13.3883 37 13.5801 36.8111 13.8216 36.6719C14.0631 36.5327 14.3329 36.4276 14.6312 36.3565C14.9295 36.2855 15.2335 36.2315 15.5432 36.1946C15.9352 36.1491 16.2534 36.1122 16.4977 36.0838C16.742 36.0526 16.9196 36.0028 17.0304 35.9347C17.1412 35.8665 17.1966 35.7557 17.1966 35.6023V35.5724C17.1966 35.2003 17.0915 34.9119 16.8812 34.7074C16.6739 34.5028 16.3642 34.4006 15.9523 34.4006C15.5233 34.4006 15.1852 34.4957 14.9381 34.6861C14.6937 34.8736 14.5247 35.0824 14.431 35.3125L13.2335 35.0398C13.3756 34.642 13.5829 34.321 13.8557 34.0767C14.1312 33.8295 14.448 33.6506 14.806 33.5398C15.1639 33.4261 15.5403 33.3693 15.9352 33.3693C16.1966 33.3693 16.4736 33.4006 16.7662 33.4631C17.0616 33.5227 17.3372 33.6335 17.5929 33.7955C17.8514 33.9574 18.0631 34.1889 18.2278 34.4901C18.3926 34.7884 18.475 35.1761 18.475 35.6534V40H17.2307V39.1051H17.1795C17.0972 39.2699 16.9736 39.4318 16.8088 39.5909C16.644 39.75 16.4324 39.8821 16.1739 39.9872C15.9153 40.0923 15.6057 40.1449 15.2449 40.1449ZM15.5219 39.1222C15.8741 39.1222 16.1753 39.0526 16.4253 38.9134C16.6781 38.7741 16.8699 38.5923 17.0006 38.3679C17.1341 38.1406 17.2008 37.8977 17.2008 37.6392V36.7955C17.1554 36.8409 17.0673 36.8835 16.9366 36.9233C16.8088 36.9602 16.6625 36.9929 16.4977 37.0213C16.3329 37.0469 16.1724 37.071 16.0162 37.0938C15.8599 37.1136 15.7293 37.1307 15.6241 37.1449C15.377 37.1761 15.1511 37.2287 14.9466 37.3026C14.7449 37.3764 14.5829 37.483 14.4608 37.6222C14.3415 37.7585 14.2818 37.9403 14.2818 38.1676C14.2818 38.483 14.3983 38.7216 14.6312 38.8835C14.8642 39.0426 15.1611 39.1222 15.5219 39.1222ZM23.2875 33.4545V34.4773H19.7122V33.4545H23.2875ZM20.671 31.8864H21.9451V38.0781C21.9451 38.3253 21.9821 38.5114 22.0559 38.6364C22.1298 38.7585 22.225 38.8423 22.3415 38.8878C22.4608 38.9304 22.59 38.9517 22.7292 38.9517C22.8315 38.9517 22.921 38.9446 22.9977 38.9304C23.0744 38.9162 23.1341 38.9048 23.1767 38.8963L23.4068 39.9489C23.3329 39.9773 23.2278 40.0057 23.0915 40.0341C22.9551 40.0653 22.7846 40.0824 22.5801 40.0852C22.2449 40.0909 21.9324 40.0312 21.6426 39.9062C21.3528 39.7812 21.1184 39.5881 20.9395 39.3267C20.7605 39.0653 20.671 38.7372 20.671 38.3423V31.8864ZM24.7569 40V33.4545H26.0311V40H24.7569ZM25.4004 32.4446C25.1788 32.4446 24.9885 32.3707 24.8294 32.223C24.6731 32.0724 24.595 31.8935 24.595 31.6861C24.595 31.4759 24.6731 31.2969 24.8294 31.1491C24.9885 30.9986 25.1788 30.9233 25.4004 30.9233C25.622 30.9233 25.8109 30.9986 25.9672 31.1491C26.1262 31.2969 26.2058 31.4759 26.2058 31.6861C26.2058 31.8935 26.1262 32.0724 25.9672 32.223C25.8109 32.3707 25.622 32.4446 25.4004 32.4446ZM32.71 35.0526L31.5552 35.2571C31.5069 35.1094 31.4302 34.9687 31.3251 34.8352C31.2228 34.7017 31.0836 34.5923 30.9075 34.5071C30.7313 34.4219 30.5112 34.3793 30.247 34.3793C29.8862 34.3793 29.585 34.4602 29.3436 34.6222C29.1021 34.7812 28.9813 34.9872 28.9813 35.2401C28.9813 35.4588 29.0623 35.6349 29.2242 35.7685C29.3862 35.902 29.6475 36.0114 30.0083 36.0966L31.0481 36.3352C31.6504 36.4744 32.0992 36.6889 32.3947 36.9787C32.6901 37.2685 32.8379 37.6449 32.8379 38.108C32.8379 38.5 32.7242 38.8494 32.497 39.1562C32.2725 39.4602 31.9586 39.6989 31.5552 39.8722C31.1546 40.0455 30.6901 40.1321 30.1617 40.1321C29.4288 40.1321 28.8308 39.9759 28.3677 39.6634C27.9046 39.348 27.6205 38.9006 27.5154 38.321L28.747 38.1335C28.8237 38.4545 28.9813 38.6974 29.22 38.8622C29.4586 39.0241 29.7697 39.1051 30.1532 39.1051C30.5708 39.1051 30.9046 39.0185 31.1546 38.8452C31.4046 38.669 31.5296 38.4545 31.5296 38.2017C31.5296 37.9972 31.4529 37.8253 31.2995 37.6861C31.149 37.5469 30.9174 37.4418 30.6049 37.3707L29.497 37.1278C28.8862 36.9886 28.4345 36.767 28.1419 36.4631C27.8521 36.1591 27.7072 35.7741 27.7072 35.3082C27.7072 34.9219 27.8151 34.5838 28.0311 34.294C28.247 34.0043 28.5453 33.7784 28.9259 33.6165C29.3066 33.4517 29.7427 33.3693 30.2342 33.3693C30.9416 33.3693 31.4984 33.5227 31.9046 33.8295C32.3109 34.1335 32.5794 34.5412 32.71 35.0526ZM37.3542 33.4545V34.4773H33.7789V33.4545H37.3542ZM34.7377 31.8864H36.0119V38.0781C36.0119 38.3253 36.0488 38.5114 36.1227 38.6364C36.1965 38.7585 36.2917 38.8423 36.4082 38.8878C36.5275 38.9304 36.6568 38.9517 36.796 38.9517C36.8982 38.9517 36.9877 38.9446 37.0644 38.9304C37.1411 38.9162 37.2008 38.9048 37.2434 38.8963L37.4735 39.9489C37.3997 39.9773 37.2945 40.0057 37.1582 40.0341C37.0218 40.0653 36.8514 40.0824 36.6468 40.0852C36.3116 40.0909 35.9991 40.0312 35.7093 39.9062C35.4195 39.7812 35.1852 39.5881 35.0062 39.3267C34.8272 39.0653 34.7377 38.7372 34.7377 38.3423V31.8864ZM38.8236 40V33.4545H40.0978V40H38.8236ZM39.4671 32.4446C39.2455 32.4446 39.0552 32.3707 38.8961 32.223C38.7398 32.0724 38.6617 31.8935 38.6617 31.6861C38.6617 31.4759 38.7398 31.2969 38.8961 31.1491C39.0552 30.9986 39.2455 30.9233 39.4671 30.9233C39.6887 30.9233 39.8776 30.9986 40.0339 31.1491C40.193 31.2969 40.2725 31.4759 40.2725 31.6861C40.2725 31.8935 40.193 32.0724 40.0339 32.223C39.8776 32.3707 39.6887 32.4446 39.4671 32.4446ZM44.629 40.1321C43.9955 40.1321 43.45 39.9886 42.9927 39.7017C42.5381 39.4119 42.1887 39.0128 41.9444 38.5043C41.7 37.9957 41.5779 37.4134 41.5779 36.7571C41.5779 36.0923 41.7029 35.5057 41.9529 34.9972C42.2029 34.4858 42.5552 34.0866 43.0097 33.7997C43.4643 33.5128 43.9998 33.3693 44.6162 33.3693C45.1134 33.3693 45.5566 33.4616 45.9458 33.6463C46.335 33.8281 46.6489 34.0838 46.8875 34.4134C47.129 34.7429 47.2725 35.1278 47.3179 35.5682H46.0779C46.0097 35.2614 45.8535 34.9972 45.6091 34.7756C45.3677 34.554 45.0438 34.4432 44.6375 34.4432C44.2824 34.4432 43.9714 34.5369 43.7043 34.7244C43.4401 34.9091 43.2341 35.1733 43.0864 35.517C42.9387 35.858 42.8648 36.2614 42.8648 36.7273C42.8648 37.2045 42.9373 37.6165 43.0821 37.9631C43.227 38.3097 43.4316 38.5781 43.6958 38.7685C43.9628 38.9588 44.2768 39.054 44.6375 39.054C44.879 39.054 45.0978 39.0099 45.2938 38.9219C45.4927 38.831 45.6589 38.7017 45.7924 38.5341C45.9287 38.3665 46.0239 38.1648 46.0779 37.929H47.3179C47.2725 38.3523 47.1347 38.7301 46.9046 39.0625C46.6745 39.3949 46.3662 39.6562 45.9799 39.8466C45.5964 40.0369 45.1461 40.1321 44.629 40.1321Z" fill="#9CA4AB"/>
<path fill-rule="evenodd" clip-rule="evenodd" d="M19.1211 19.5625C18.7071 19.5625 18.3711 19.2265 18.3711 18.8125V11.9525C18.3711 11.5385 18.7071 11.2025 19.1211 11.2025C19.5351 11.2025 19.8711 11.5385 19.8711 11.9525V18.8125C19.8711 19.2265 19.5351 19.5625 19.1211 19.5625Z" fill="#9CA4AB"/>
<path fill-rule="evenodd" clip-rule="evenodd" d="M23.7881 19.5615C23.3741 19.5615 23.0381 19.2255 23.0381 18.8115V8.66849C23.0381 8.25449 23.3741 7.91849 23.7881 7.91849C24.2021 7.91849 24.5381 8.25449 24.5381 8.66849V18.8115C24.5381 19.2255 24.2021 19.5615 23.7881 19.5615Z" fill="#9CA4AB"/>
<path fill-rule="evenodd" clip-rule="evenodd" d="M28.3784 19.5615C27.9644 19.5615 27.6284 19.2255 27.6284 18.8115V15.5775C27.6284 15.1635 27.9644 14.8275 28.3784 14.8275C28.7924 14.8275 29.1284 15.1635 29.1284 15.5775V18.8115C29.1284 19.2255 28.7924 19.5615 28.3784 19.5615Z" fill="#9CA4AB"/>
<path fill-rule="evenodd" clip-rule="evenodd" d="M19.064 4.5C16.292 4.5 14.5 6.397 14.5 9.335V18.165C14.5 21.103 16.292 23 19.064 23H28.436C31.209 23 33 21.103 33 18.165V9.335C33 6.397 31.209 4.5 28.436 4.5H19.064ZM28.436 24.5H19.064C15.437 24.5 13 21.954 13 18.165V9.335C13 5.546 15.437 3 19.064 3H28.436C32.063 3 34.5 5.546 34.5 9.335V18.165C34.5 21.954 32.063 24.5 28.436 24.5Z" fill="#9CA4AB"/>
</svg>
